<?xml version="1.0" encoding="UTF-8"?><svg id="Layer_1" xmlns="http://www.w3.org/2000/svg" viewBox="0 0 16 16"><defs><style>.cls-1{opacity:.15;}.cls-2{fill:#85c8ff;}.cls-2,.cls-3,.cls-4,.cls-5,.cls-6,.cls-7{stroke-width:0px;}.cls-3{fill:#3083fc;}.cls-4{fill:#2e3192;}.cls-5{fill:#1b1464;}.cls-6{fill:#fff;}.cls-7{fill:#66b6ff;}</style></defs><rect class="cls-4" width="16" height="16"/><path class="cls-2" d="m12.71,5.55H2.53c-.21,0-.38.2-.38.43v8.39c0,.24.17.43.38.43h10.19c.21,0,.38-.2.38-.43V5.99c0-.24-.17-.43-.38-.43Z"/><path class="cls-7" d="m13.5,3.26H1.74c-.24,0-.44.23-.44.5v9.68c0,.28.2.5.44.5h11.76c.24,0,.44-.23.44-.5V3.76c0-.28-.2-.5-.44-.5Z"/><path class="cls-3" d="m14.3,2.4H1c-.28,0-.5.23-.5.5v9.68c0,.28.23.5.5.5h13.3c.28,0,.5-.23.5-.5V2.9c0-.28-.23-.5-.5-.5Z"/><g class="cls-1"><path class="cls-5" d="m11.72,4.93h-7.31c-.18,0-.33.15-.33.33v6.04c0,.18.15.33.33.33h7.31c.18,0,.33-.15.33-.33v-6.04c0-.18-.15-.33-.33-.33Zm-2.94,1.29c.55,0,1,.45,1,1s-.45,1-1,1-1-.45-1-1c0-.55.45-1,1-1Zm2.64,4.65h-6.71v-3l1.34-1.67,2.68,3.67,1.68-1.33,1.01,1v1.33Z"/></g><g id="lighbox-v2"><path class="cls-6" d="m11.31,4.39H4c-.18,0-.33.15-.33.33v6.04c0,.18.15.33.33.33h7.31c.18,0,.33-.15.33-.33v-6.04c0-.18-.15-.33-.33-.33Zm-2.94,1.29c.55,0,1,.45,1,1s-.45,1-1,1-1-.45-1-1c0-.55.45-1,1-1Zm2.64,4.65h-6.71v-3l1.34-1.67,2.68,3.67,1.68-1.33,1.01,1v1.33Z"/></g><circle class="cls-4" cx="13.98" cy="2.71" r="1.52"/><polygon class="cls-6" points="14.58 2.24 14.45 2.11 13.98 2.58 13.51 2.11 13.38 2.24 13.85 2.71 13.38 3.18 13.51 3.31 13.98 2.84 14.45 3.31 14.58 3.18 14.11 2.71 14.58 2.24"/></svg>